<svg version="1.1" id="Rutgers" xmlns="http://www.w3.org/2000/svg"
xmlns:xlink="http://www.w3.org/1999/xlink" x="0px" y="0px" viewBox="95 90 275 85"
enable-background="" xml:space="preserve" style="background: #CC0033; display: block; width: 275px;">
  <g>
  <path fill="#CC0033" d="M99.8982,96.9318l0.0004,41.5436c0.1556,6.95,2.425,12.9372,6.7451,17.7956
  c7.6901,8.6487,19.3318,10.7934,20.6336,11.0095c0.0912,0.0153,0.1537,0.0246,0.1786,0.0284l0.258,0.0387l0.2589-0.0377
  c0.5194-0.0758,12.8135-1.9623,20.8536-11.0414c1.8211-2.0561,3.2947-4.3506,4.3796-6.8195
  c1.4577-3.3161,2.2419-7.0096,2.3307-10.992V96.9318H99.8982z"></path>
  <path fill="#FFFFFF" d="M136.0159,99.9547h-4.4277l-0.4854,12.1851c0.1308,0.0242,0.2613,0.0494,0.3911,0.0764L136.0159,99.9547z"></path>
  <polygon fill="#FFFFFF" points="143.2337,115.5488 152.5306,108.7926 152.5306,100.5171 141.5967,115.5488 "></polygon>
  <path fill="#FFFFFF" d="M138.0542,115.0141l13.9177-15.0595h-7.4008l-6.8499,14.837
  C137.8331,114.8647,137.9442,114.9387,138.0542,115.0141z"></path>
  <path fill="#FFFFFF" d="M134.9131,113.2895l8.1696-13.3349h-5.3673l-3.1724,13.1822
  C134.6671,113.1865,134.7905,113.2372,134.9131,113.2895z"></path>
  <polygon fill="#FFFFFF" points="152.5306,115.5488 152.5306,110.8128 147.4016,115.5488 "></polygon>
  <path fill="#FFFFFF" d="M127.7141,111.833c0.0776,0,0.1546,0.0018,0.232,0.0027l1.8751-11.8811h-4.151l1.8804,11.8805
  C127.6051,111.8347,127.6594,111.8331,127.7141,111.833z"></path>
  <path fill="#FFFFFF" d="M124.3792,112.1398l-0.4855-12.1851h-4.4277l4.522,12.2615
  C124.1178,112.1892,124.2482,112.164,124.3792,112.1398z"></path>
  <polygon fill="#FFFFFF" points="113.885,115.5488 102.9512,100.5171 102.9512,108.7926 112.2482,115.5488 "></polygon>
  <path fill="#FFFFFF" d="M117.7605,114.7917l-6.8499-14.837h-7.4008l13.9177,15.0595
  C117.5376,114.9387,117.6487,114.8647,117.7605,114.7917z"></path>
  <path fill="#FFFFFF" d="M120.9388,113.1368l-3.1725-13.1822h-5.3672l8.1696,13.3349
  C120.6913,113.2372,120.8148,113.1865,120.9388,113.1368z"></path>
  <polygon fill="#FFFFFF" points="102.9512,110.8128 102.9512,115.5488 108.0802,115.5488 "></polygon>
  <path fill="#FFFFFF" d="M99.8982,96.9318l0.0004,41.5436c0.1556,6.95,2.425,12.9372,6.7451,17.7956
  c7.6901,8.6487,19.3318,10.7934,20.6336,11.0095c0.0912,0.0153,0.1537,0.0246,0.1786,0.0284l0.258,0.0387l0.2589-0.0377
  c0.5194-0.0758,12.8135-1.9623,20.8536-11.0414c1.8211-2.0561,3.2947-4.3506,4.3796-6.8195
  c1.4577-3.3161,2.2419-7.0096,2.3307-10.992V96.9318H99.8982z M154.1193,138.4427c-0.0842,3.7782-0.8281,7.2893-2.2109,10.4357
  c-1.0261,2.3342-2.42,4.5046-4.1433,6.4504c-7.7112,8.7073-19.4986,10.5057-19.9969,10.5781l-0.0512,0.0073l-0.0522-0.0078
  c-0.0235-0.0033-0.0764-0.0113-0.1552-0.0246c-1.2513-0.2073-12.4383-2.2661-19.8064-10.5527
  c-4.0905-4.6001-6.2394-10.2812-6.3873-16.8911V98.3495h52.8035v40.0932H154.1193z"></path>
  <polygon fill="#FFFFFF" points="112.8794,133.9313 112.8794,135.4272 114.3423,135.4272 114.3423,134.059 114.3324,133.9313 "></polygon>
  <path fill="#FFFFFF" d="M110.1039,132.8802l0.0268,0.0918h4.2017v-4.8533l-0.1732,0.0661
  c-0.2889,0.1105-0.5879,0.1761-0.9109,0.1965c-0.0534,0.0027-0.1071,0.0036-0.1654,0.0046
  c-0.0278,0.0009-0.0532,0.0014-0.0788,0.0014c-0.7327,0-1.4409-0.1558-2.1051-0.4631c-0.067-0.0311-0.1301-0.0619-0.205-0.0999
  c-0.2229-0.097-0.4599-0.1461-0.7045-0.1461c-0.9772,0-1.772,0.7949-1.772,1.7719c0,0.578,0.1099,0.7845,0.8403,1.5788
  C109.5491,131.5638,109.9012,132.1866,110.1039,132.8802z"></path>
  <rect x="118.1868" y="133.9313" fill="#FFFFFF" width="1.4628" height="1.4959"></rect>
  <path fill="#FFFFFF" d="M102.9603,138.4813c0.1405,6.1987,2.1522,11.524,5.9795,15.8283
  c6.0888,6.8478,15.1064,9.2271,17.9882,9.8365v-46.9967h-23.9677V138.4813z M110.4646,144.0618h-2.3352v-0.1786l0.4532-0.0548
  c0.3022-0.0344,0.3022-0.0963,0.3022-0.838v-1.8132c0-0.8243-0.0481-0.8931-0.1855-0.8931c-0.0824,0-0.1511,0.0139-0.2335,0.0276
  l-0.4533,0.0756l-0.0549-0.1788c0.2953-0.1167,1.5317-0.5355,1.6485-0.5767l0.103,0.0756v3.283c0,0.7417,0,0.8036,0.3022,0.838
  l0.4533,0.0548L110.4646,144.0618L110.4646,144.0618z M121.1653,137.6921v0.4471h-12.4877v-0.4471H121.1653z M108.6776,137.237
  v-0.4471h12.4877v0.4471H108.6776z M113.3077,142.3309c-0.3504,0.838-0.4465,0.8931-0.6732,1.8819l-0.0755,0.0481
  c-0.3091-0.1374-0.5151-0.261-0.6937-0.5014c0.0756-0.4807,0.9273-1.408,1.5248-2.3627c0.3159-0.5151,0.3915-0.7692,0.4465-1.0166
  h-1.3187c-0.7693,0-0.7076,0-0.9136,0.5359l-0.1786-0.0552c0.0412-0.3844,0.103-0.7692,0.3022-1.1262h2.7611l0.0619,0.0756
  C114.3654,140.511,114.0495,140.8406,113.3077,142.3309z M116.6521,144.1648c-0.8243,0-1.5248-0.5974-1.5248-1.8613
  c0-1.8613,1.2225-2.6716,2.3353-2.6716c0.3297,0,0.5563,0.0823,0.6594,0.1234l-0.055,0.1926
  c-0.1168-0.0277-0.1992-0.0551-0.4396-0.0551c-0.9341,0-1.6485,0.7694-1.6485,2.3215c0,0.9821,0.2816,1.6897,0.8655,1.6897
  c0.4532,0,0.625-0.4672,0.625-0.8998c0-0.6593-0.3777-1.2433-0.9066-1.2433c-0.0619,0-0.1167,0.007-0.1786,0.0137l-0.0275-0.1236
  c0.1512-0.1167,0.371-0.2885,0.7556-0.2885c0.5701,0,1.0852,0.5014,1.0852,1.1539
  C118.1975,143.6085,117.5175,144.1648,116.6521,144.1648z M120.4363,144.1648c-0.8244,0-1.5248-0.5974-1.5248-1.8613
  c0-1.8613,1.2225-2.6716,2.3353-2.6716c0.3296,0,0.5563,0.0823,0.6593,0.1234l-0.0549,0.1926
  c-0.1169-0.0277-0.1992-0.0551-0.4396-0.0551c-0.9342,0-1.6485,0.7694-1.6485,2.3215c0,0.9821,0.2816,1.6897,0.8654,1.6897
  c0.4533,0,0.6251-0.4672,0.6251-0.8998c0-0.6593-0.3777-1.2433-0.9067-1.2433c-0.0619,0-0.1167,0.007-0.1785,0.0137l-0.0275-0.1236
  c0.1512-0.1167,0.3709-0.2885,0.7555-0.2885c0.5701,0,1.0853,0.5014,1.0853,1.1539
  C121.9818,143.6085,121.3017,144.1648,120.4363,144.1648z M114.935,123.42c0.6037,0,1.093,0.4894,1.093,1.0931
  s-0.4894,1.0931-1.093,1.0931c-0.6037,0-1.0931-0.4894-1.0931-1.0931C113.8418,123.9093,114.3311,123.42,114.935,123.42z
  M109.9895,126.3734c0.4512,0,0.8873,0.0956,1.2899,0.2809c0.0582,0.0311,0.1176,0.0601,0.1779,0.088
  c0.4875,0.2258,1.0081,0.3403,1.5468,0.3403l0.0527-0.0014c0.0421-0.0005,0.0844-0.0012,0.1284-0.0033
  c0.5952-0.0379,1.1231-0.3837,1.4007-0.9165h0.7244c0.2735,0.5298,0.8036,0.8785,1.4037,0.9167
  c0.0418,0.0019,0.0839,0.0026,0.1453,0.0037l0.0336,0.0008c0.4967,0,0.9791-0.0972,1.4475-0.2962
  c0.1165-0.0671,0.2357-0.1261,0.3543-0.1756c0.3782-0.1575,0.779-0.2374,1.1912-0.2374c1.71,0,3.101,1.391,3.101,3.1009
  c0,0.7938-0.4121,1.6591-1.1606,2.4365c-0.0175,0.0183-0.0347,0.0362-0.0485,0.0549c-0.4406,0.4848-0.7275,1.0812-0.8298,1.7256
  c-0.0177,0.111-0.0298,0.2236-0.0366,0.3451l0.0003,0.3793c0.0217,0.3819,0.1076,0.7534,0.2554,1.1049v0.7511h-12.4866v-0.6992
  c0.1883-0.4273,0.2836-0.8814,0.2836-1.35c0-0.1733-0.0133-0.3474-0.0397-0.5175c-0.1007-0.6509-0.3895-1.2531-0.8353-1.7422
  c-0.0143-0.0201-0.0329-0.0394-0.0524-0.0598c-0.751-0.7852-1.148-1.6249-1.148-2.4286
  C106.8885,127.7644,108.2795,126.3734,109.9895,126.3734z"></path>
  <rect x="110.2258" y="133.9313" fill="#FFFFFF" width="1.4628" height="1.4959"></rect>
  <path fill="#FFFFFF" d="M119.7663,132.8802c0.202-0.6907,0.5512-1.3108,1.0413-1.8466c0.087-0.1026,0.8504-1.0183,0.8504-1.5833
  c0-0.977-0.7948-1.7719-1.7719-1.7719c-0.2363,0-0.4652,0.0456-0.6802,0.1353c-0.0668,0.0278-0.1346,0.0614-0.2015,0.1001
  l-0.1608,0.08c-0.6188,0.2613-1.2751,0.3938-1.9507,0.3938c-0.0264,0-0.0527-0.0006-0.0835-0.0016
  c-0.0512-0.0007-0.1059-0.0017-0.182-0.0056c-0.3092-0.0198-0.6155-0.0883-0.9101-0.2034l-0.1741-0.0681v4.8632h4.1961
  L119.7663,132.8802z"></path>
  <rect x="115.5331" y="133.9313" fill="#FFFFFF" width="1.4628" height="1.4959"></rect>
  <path fill="#FFFFFF" d="M136.2793,135.6649c0.3158-0.0228,0.5479-0.0715,0.7525-0.1145c0.2241-0.0468,0.4177-0.0874,0.6891-0.091
  c0.423-0.0109,0.8619,0.0859,1.3026,0.2718v-0.5571c-0.4399-0.1604-0.8794-0.2439-1.3094-0.2379
  c-0.3222,0.0043-0.5598,0.0541-0.7894,0.1022c-0.1979,0.0414-0.4025,0.0843-0.6831,0.1047c-0.409,0.0288-0.8231-0.0015-1.232-0.089
  v0.5319C135.4312,135.6666,135.8571,135.6958,136.2793,135.6649z"></path>
  <path fill="#FFFFFF" d="M136.2793,134.2452c0.3158-0.0227,0.5479-0.0716,0.7525-0.1145c0.2241-0.0468,0.4177-0.0873,0.6891-0.091
  c0.423-0.0109,0.8619,0.0859,1.3026,0.2718v-0.5571c-0.4399-0.1603-0.8794-0.2438-1.3094-0.2379
  c-0.3222,0.0044-0.5598,0.0542-0.7894,0.1022c-0.1979,0.0414-0.4025,0.0844-0.6831,0.1048
  c-0.409,0.0288-0.8231-0.0015-1.232-0.0891v0.532C135.4312,134.2469,135.8571,134.276,136.2793,134.2452z"></path>
  <path fill="#FFFFFF" d="M136.2793,132.8258c0.3159-0.0227,0.5481-0.0712,0.7531-0.1145c0.224-0.0468,0.4174-0.0874,0.6885-0.091
  c0.4238-0.0135,0.8627,0.0867,1.3026,0.2722v-0.5579c-0.4392-0.1617-0.8785-0.25-1.3092-0.2374
  c-0.3222,0.0043-0.5596,0.0542-0.7894,0.1022c-0.1979,0.0414-0.4025,0.0843-0.6833,0.1047
  c-0.4091,0.0293-0.8232-0.0015-1.2321-0.0887v0.5319C135.4312,132.8278,135.8573,132.8564,136.2793,132.8258z"></path>
  <path fill="#FFFFFF" d="M136.2793,129.9865c0.3158-0.0227,0.5479-0.0716,0.7525-0.1145c0.2241-0.0468,0.4177-0.0873,0.6891-0.091
  c0.423-0.0114,0.8619,0.0859,1.3026,0.2719v-0.5578c-0.4399-0.1617-0.8794-0.2498-1.3094-0.2373
  c-0.3222,0.0044-0.5598,0.0542-0.7894,0.1022c-0.1979,0.0414-0.4025,0.0844-0.6831,0.1048
  c-0.409,0.0288-0.8231-0.0015-1.232-0.0891v0.532C135.4312,129.9882,135.8571,130.0173,136.2793,129.9865z"></path>
  <path fill="#FFFFFF" d="M136.2793,131.406c0.3157-0.0227,0.5478-0.0713,0.7525-0.1142c0.224-0.047,0.4176-0.0876,0.6889-0.091
  c0.4217-0.0094,0.8618,0.0859,1.3026,0.2718v-0.5578c-0.4399-0.1618-0.8794-0.2502-1.3094-0.2373
  c-0.322,0.0041-0.5596,0.0539-0.7894,0.1019c-0.1978,0.0416-0.4024,0.0844-0.6829,0.1048
  c-0.4091,0.0295-0.8231-0.0014-1.2322-0.0888v0.532C135.4312,131.408,135.8573,131.4366,136.2793,131.406z"></path>
  <path fill="#FFFFFF" d="M136.2793,128.5663c0.3159-0.0228,0.5481-0.0713,0.7531-0.1145c0.224-0.0468,0.4174-0.0874,0.6885-0.091
  c0.4238-0.0105,0.8627,0.0864,1.3026,0.2721v-0.5575c-0.4392-0.1606-0.8785-0.246-1.3092-0.2378
  c-0.3222,0.0043-0.5596,0.0541-0.7894,0.1021c-0.1979,0.0414-0.4025,0.0844-0.6833,0.1048
  c-0.4091,0.0291-0.8232-0.0015-1.2321-0.0887v0.5319C135.4312,128.5683,135.8573,128.5966,136.2793,128.5663z"></path>
  <path fill="#FFFFFF" d="M136.4297,137.6053c1.3315-0.2476,2.4788-0.103,3.4183,0.4217v-0.4276l-0.1272-0.0714
  c-0.2345-0.1401-0.8489-0.5009-1.9491-0.5263c-0.0399-0.0009-0.0755-0.0047-0.1167-0.0047c-0.0899,0-0.185,0.0093-0.2775,0.0139
  c-0.2801,0.0139-0.5678,0.0419-0.8661,0.0974c-0.755,0.14-1.6649,0.0938-2.6895-0.1377l-0.1744-0.0395v-1.8708v-6.8013v-0.3972
  v-0.4612v-0.0766c-0.1502-0.0364-0.3026-0.0762-0.4581-0.1203v0.0716v0.465v1.2374v5.364v2.9387
  C134.4706,137.658,135.5596,137.7673,136.4297,137.6053z"></path>
  <path fill="#FFFFFF" d="M136.4297,138.5423c1.3306-0.2475,2.4792-0.107,3.4183,0.4167v-0.4185l-0.0602-0.0367
  c-0.0175-0.0097-0.0398-0.0229-0.0669-0.0389c-0.8611-0.5142-1.941-0.6557-3.2094-0.4199
  c-0.9768,0.1814-2.192,0.0523-3.6114-0.3848l-0.1577-0.0484v-4.3532v-3.1978v-2.455c-0.1483-0.0475-0.2962-0.0945-0.4489-0.1485
  v10.4635C133.9686,138.5323,135.359,138.7414,136.4297,138.5423z"></path>
  <path fill="#FFFFFF" d="M144.0736,134.1307c0.2047,0.0429,0.4368,0.0917,0.7525,0.1145c0.4222,0.0308,0.8481,0.0017,1.2698-0.0788
  v-0.532c-0.409,0.0875-0.823,0.1179-1.232,0.0891c-0.2806-0.0204-0.4852-0.0634-0.6831-0.1048
  c-0.2296-0.048-0.4672-0.0978-0.7894-0.1022c-0.43-0.0059-0.8695,0.0776-1.3093,0.2379v0.5571
  c0.4406-0.1859,0.8795-0.2827,1.3025-0.2718C143.6559,134.0434,143.8495,134.084,144.0736,134.1307z"></path>
  <path fill="#FFFFFF" d="M144.6758,137.6053c0.8701,0.1619,1.9592,0.0527,3.2402-0.3249v-2.9387v-5.364v-1.2374v-0.465v-0.0716
  c-0.1554,0.0441-0.3079,0.0839-0.4581,0.1203v0.0766v0.4612v0.3972v6.8013v1.8708l-0.1744,0.0395
  c-1.0245,0.2315-1.9344,0.2777-2.6895,0.1377c-0.2983-0.0555-0.586-0.0835-0.8661-0.0974
  c-0.0925-0.0046-0.1876-0.0139-0.2775-0.0139c-0.0412,0-0.0768,0.0038-0.1167,0.0047c-1.1002,0.0253-1.7146,0.3861-1.9491,0.5263
  l-0.1272,0.0714v0.4276C142.1969,137.5024,143.3443,137.3577,144.6758,137.6053z"></path>
  <path fill="#FFFFFF" d="M144.0732,132.7113c0.2049,0.0432,0.4371,0.0917,0.7531,0.1145c0.422,0.0306,0.848,0.0021,1.2698-0.0785
  v-0.5319c-0.409,0.0873-0.8231,0.1181-1.2321,0.0887c-0.2808-0.0204-0.4854-0.0633-0.6833-0.1047
  c-0.2297-0.048-0.4671-0.0979-0.7894-0.1022c-0.4308-0.0126-0.8701,0.0758-1.3092,0.2374v0.5579
  c0.4398-0.1855,0.8788-0.2856,1.3026-0.2722C143.6559,132.6239,143.8492,132.6645,144.0732,132.7113z"></path>
  <path fill="#FFFFFF" d="M128.5284,164.1462c2.8818-0.6094,11.8994-2.9888,17.9882-9.8365
  c3.8274-4.3043,5.839-9.6297,5.9795-15.8283v-21.3318h-23.9677V164.1462z M137.049,142.8694l-0.9218-0.4846l-0.9217,0.4846
  l0.1761-1.0264l-0.7457-0.7269l1.0305-0.1497l0.4609-0.9339l0.4609,0.9339l1.0305,0.1497l-0.7458,0.7269L137.049,142.8694z
  M145.9,142.8694l-0.9217-0.4846l-0.9218,0.4846l0.1761-1.0264l-0.7457-0.7269l1.0305-0.1497l0.4609-0.9339l0.4609,0.9339
  l1.0305,0.1497l-0.7457,0.7269L145.9,142.8694z M140.8102,136.0829v-8.8463c0.2401-0.177,0.4966-0.329,0.7645-0.4591
  c0.3905-0.1756,1.0102-0.3731,1.8759-0.3731c0.3892,0,0.8014,0.0399,1.2251,0.1187c0.1657,0.0307,0.3409,0.0509,0.5239,0.0618
  c0.5832,0.0347,1.2513-0.0305,1.9854-0.1961l0.2728-0.0616v0.5347c0.2007-0.0508,0.4048-0.1061,0.6158-0.1711l0.2894-0.0891v0.5359
  c0.1942-0.0644,0.3915-0.1333,0.5939-0.2091l0.3021-0.1133v11.4163l-0.1449,0.0544c-1.8172,0.6819-3.3375,0.9164-4.5202,0.6962
  c-1.2349-0.2296-2.2895-0.0989-3.139,0.3829h-0.6447L140.8102,136.0829L140.8102,136.0829z M141.0136,142.2286l1.0305,0.1497
  l-0.7457,0.7269l0.1761,1.0264l-0.9217-0.4846l-0.9218,0.4846l0.1761-1.0264l-0.7457-0.7269l1.0305-0.1497l0.4609-0.9339
  L141.0136,142.2286z M131.8465,126.8151l0.3021,0.1133c0.2023,0.0759,0.3997,0.1448,0.5939,0.2091v-0.5359l0.2894,0.0891
  c0.2109,0.065,0.415,0.1203,0.6158,0.1711v-0.5347l0.2728,0.0616c0.7342,0.1656,1.4022,0.2308,1.9854,0.1961
  c0.183-0.0109,0.3582-0.0311,0.5239-0.0618c0.4236-0.0788,0.8358-0.1187,1.2251-0.1187c0.8657,0,1.4854,0.1975,1.8759,0.3731
  c0.2679,0.1301,0.5244,0.282,0.7645,0.4591v8.8463v3.282h-0.6446c-0.8496-0.4817-1.9042-0.6125-3.1391-0.3829
  c-1.1827,0.2203-2.7029-0.0143-4.5202-0.6962l-0.1449-0.0544L131.8465,126.8151L131.8465,126.8151z"></path>
  <path fill="#FFFFFF" d="M144.6758,138.5423c1.0707,0.1992,2.4612-0.01,4.1362-0.6215v-10.4635
  c-0.1526,0.0541-0.3006,0.1011-0.4489,0.1485v2.455v3.1978v4.3532l-0.1577,0.0484c-1.4194,0.4371-2.6346,0.5662-3.6114,0.3848
  c-1.2684-0.2358-2.3483-0.0943-3.2094,0.4199c-0.0271,0.016-0.0494,0.0292-0.0669,0.0389l-0.0602,0.0367v0.4185
  C142.1964,138.4353,143.345,138.2948,144.6758,138.5423z"></path>
  <path fill="#FFFFFF" d="M144.0736,135.5504c0.2047,0.043,0.4368,0.0917,0.7525,0.1145c0.4222,0.0309,0.8481,0.0017,1.2698-0.0788
  v-0.5319c-0.409,0.0875-0.823,0.1178-1.232,0.089c-0.2806-0.0204-0.4852-0.0633-0.6831-0.1047
  c-0.2296-0.048-0.4672-0.0979-0.7894-0.1022c-0.43-0.006-0.8695,0.0775-1.3093,0.2379v0.5571
  c0.4406-0.1859,0.8795-0.2827,1.3025-0.2718C143.6559,135.4631,143.8495,135.5036,144.0736,135.5504z"></path>
  <path fill="#FFFFFF" d="M144.0736,129.872c0.2047,0.0429,0.4368,0.0917,0.7525,0.1145c0.4222,0.0308,0.8481,0.0017,1.2698-0.0788
  v-0.532c-0.409,0.0875-0.823,0.1179-1.232,0.0891c-0.2806-0.0204-0.4852-0.0633-0.6831-0.1048
  c-0.2296-0.048-0.4672-0.0978-0.7894-0.1022c-0.43-0.0125-0.8695,0.0755-1.3093,0.2373v0.5578
  c0.4406-0.186,0.8795-0.2833,1.3025-0.2719C143.6559,129.7847,143.8495,129.8252,144.0736,129.872z"></path>
  <path fill="#FFFFFF" d="M144.0732,128.4518c0.2049,0.0432,0.4371,0.0917,0.7531,0.1145c0.422,0.0304,0.848,0.002,1.2698-0.0785
  v-0.532c-0.409,0.0873-0.8231,0.1178-1.2321,0.0887c-0.2808-0.0204-0.4854-0.0633-0.6833-0.1048
  c-0.2297-0.048-0.4671-0.0978-0.7894-0.1021c-0.4308-0.0082-0.8701,0.0771-1.3092,0.2378v0.5575
  c0.4398-0.1857,0.8788-0.2826,1.3026-0.2721C143.6559,128.3645,143.8492,128.405,144.0732,128.4518z"></path>
  <path fill="#FFFFFF" d="M144.0735,131.2918c0.2047,0.0429,0.4368,0.0915,0.7525,0.1142c0.422,0.0306,0.8481,0.0021,1.2699-0.0785
  v-0.532c-0.4091,0.0874-0.8231,0.1183-1.2322,0.0888c-0.2805-0.0204-0.4852-0.0631-0.6829-0.1048
  c-0.2298-0.048-0.4674-0.0978-0.7894-0.1019c-0.43-0.013-0.8695,0.0754-1.3093,0.2373v0.5578
  c0.4407-0.1859,0.8809-0.2812,1.3026-0.2718C143.6559,131.2042,143.8495,131.2448,144.0735,131.2918z"></path>
  <g>
  <path fill="#FFFFFF" d="M225.6185,143.3131l1.3387-0.4022V120.414c0-5.4441,0-5.668,1.738-5.8468l1.6064-0.1339v-0.959h-10.8361
  v0.959l1.6037,0.1339c1.7397,0.1789,1.7397,0.4027,1.7397,5.8468v18.1227c-0.6683,0.8032-3.4334,3.5705-8.0727,3.5705
  c-6.9123,0-7.9827-4.2398-7.9827-10.6232v-11.0699c0-5.4452,0-5.668,1.7397-5.8468l1.6037-0.1339v-0.959h-10.8378v0.959
  l1.6064,0.1339c1.7381,0.1789,1.7381,0.4016,1.7381,5.8468v11.7853c0,6.0691,0.7593,11.3804,9.9907,11.3804
  c5.9336,0,9.6352-2.8095,10.2585-2.8095c0.6694-0.0016,1.026,0.6237,1.6498,1.247L225.6185,143.3131z"></path>
  <path fill="#FFFFFF" d="M237.5665,142.9107h12.3547V141.95l-1.6069-0.1328c-2.4969-0.1799-2.4969-0.4005-2.4969-5.8479v-21.2466
  h2.3186c6.2906,0,6.379,0.6693,7.3605,5.8469h1.0688c0-0.1794-0.2222-6.1135-0.4005-7.095h-24.8429
  c-0.18,0.9815-0.4011,6.9156-0.4011,7.095h1.0704c0.9788-5.1775,1.0688-5.8469,7.3589-5.8469h2.3202v21.2466
  c0,5.4474,0,5.668-2.4529,5.8479l-1.6508,0.1328L237.5665,142.9107L237.5665,142.9107z"></path>
  <path fill="#FFFFFF" d="M284.0244,137.0395c0-4.3419,0-4.5647,0.8461-4.7446l1.6069-0.1339v-0.959h-11.3305v0.959l1.6069,0.1339
  c3.119,0.1799,3.119,0.4027,3.119,5.8638v3.3692c-1.5592,0.4011-3.61,0.5794-5.2154,0.5794
  c-8.742,0-12.6219-7.0665-12.6219-14.6723c0-8.3409,4.5937-13.1574,11.9055-13.1574c7.6288,0,8.2082,5.4397,8.6564,7.225
  l1.2026-0.2666c-0.1948-2.2001-0.4312-4.6986-0.7133-6.6029c-1.1587-0.7116-4.5476-1.8281-9.0986-1.8281
  c-7.0478,0-16.6358,3.5678-16.6358,15.476c0,11.3667,8.0282,15.2988,16.9941,15.2988c4.7705,0,8.1857-1.2822,9.763-1.7776
  C284.1094,141.8023,284.0244,138.3826,284.0244,137.0395"></path>
  <path fill="#FFFFFF" d="M289.2186,142.9107h20.429c0.5821-2.4135,1.0792-4.6376,1.4699-7.405l-1.1133-0.1783
  c-0.8932,3.6589-1.3386,6.3346-8.4429,6.3346c-1.6004,0-3.2458-0.2666-4.8478-0.5793v-12.8459h3.959
  c3.4702,0,4.2717,0.0439,4.5389,1.8736l0.2239,1.5137h1.1768v-8.025h-1.1768l-0.2239,1.5165
  c-0.2672,1.828-1.0687,1.873-4.5389,1.873h-3.959v-12.2659h3.6923c6.2962,0,6.3851,0.6677,7.3683,5.4414l1.0698-0.1783
  c0-0.4011-0.2238-5.5298-0.4021-6.5113h-19.2232v0.9585l1.6069,0.1344c1.7381,0.1783,1.7381,0.4027,1.7381,5.8512v15.5413
  c0,5.4546,0,5.6774-1.7381,5.8573l-1.6069,0.1328L289.2186,142.9107L289.2186,142.9107z"></path>
  <path fill="#FFFFFF" d="M322.1082,115.3021c0.8898-0.1777,1.8275-0.3566,2.7634-0.3566c3.4795,0,6.9096,1.607,6.9096,6.8256
  c0,5.0387-3.3873,7.0451-7.1334,7.0451h-2.5396V115.3021z M314.6132,142.9107h10.7923V141.95l-1.607-0.1328
  c-1.6903-0.1799-1.6903-0.4027-1.6903-5.8523v-5.9h1.6491c0.936,0,2.0492,0,2.7657,0.5821
  c0.5776,0.491,1.602,2.1907,2.7608,4.3787l1.7836,3.4411c1.3387,2.4557,3.3895,4.444,6.3334,4.444h3.4345v-0.9607
  c-0.9832,0-1.7853-0.175-2.2318-0.4438c-1.1127-0.6261-3.0763-3.2639-4.9471-6.615c-1.2059-2.1452-2.6801-5.0052-3.3494-6.2534
  c2.4546-1.1604,6.1562-3.6177,6.1562-7.7725c0-6.7812-5.9763-7.3907-10.2085-7.3907h-11.6415v0.9585l1.6053,0.1344
  c1.7397,0.1783,1.7397,0.4027,1.7397,5.8512v15.5463c0,5.4496,0,5.6724-1.7397,5.8523l-1.6053,0.1328L314.6132,142.9107
  L314.6132,142.9107z"></path>
  <path fill="#FFFFFF" d="M350.5532,124.6235c-2.4091-1.4254-4.3255-2.8524-4.3255-5.4853c0-2.9868,2.2719-4.8604,4.862-4.8604
  c5.0371,0,5.752,3.8799,6.1958,6.1085h1.1176c-0.1054-1.297-0.215-4.5675-0.4482-6.1557
  c-1.1587-0.7105-3.3873-1.4254-6.153-1.4254c-4.7276,0-9.2769,2.2741-9.2769,7.7155c0,3.345,2.3646,6.1107,4.906,7.4933
  l2.8539,1.5613c3.4806,1.5598,6.2002,3.79,6.2002,7.0468c0,3.4789-2.2763,5.4847-5.3525,5.4847
  c-6.1107,0-7.7599-5.307-8.251-8.5193l-1.427,0.3589c0.5047,3.0581,1.0029,6.1634,1.427,7.8499
  c1.3826,0.8471,3.5217,1.7836,7.0023,1.7836c4.7259,0,10.2996-2.3201,10.2996-8.3393c0-5.3547-3.6523-7.2266-7.1805-9.2342
  L350.5532,124.6235z"></path>
  <path fill="#FFFFFF" d="M177.6164,125.9255c1.3656,0.0718,2.831-0.0396,4.1982-0.0396c5.2796,0,8.5072-2.8342,8.5072-8.1088
  c0-5.7421-3.2732-9.2638-9.1261-9.2638c-1.2059,0-2.3948,0.2337-3.5722,0.4685L177.6164,125.9255z M189.0061,125.9177
  c0.5075,2.8266,4.4456,10.0851,5.9565,12.7839c3.4164,6.2995,12.1661,19.0427,18.7169,18.6312l0.756,0.005l-0.0071,1.033
  l-1.15,0.0401c-9.2555,0.3616-17.5263-9.9507-22.3378-18.2187c-1.9575-3.3615-3.8541-7.2662-5.5462-10.7682
  c-0.4175-0.9053-0.9481-1.4797-1.54-1.8429c-0.913-0.4834-2.1035-0.4756-3.0872-0.4756c-0.5717-0.005-2.2681,0-3.1508,0
  l-0.0049,7.4308c0,1.3655-0.1037,4.7518,0.2666,6.0827c0.2946,1.0474,0.9288,1.1835,1.9789,1.2948l1.8127,0.1503v0.84h-12.6428
  v-0.84l1.8154-0.1503c1.0748-0.1114,1.726-0.2441,2.0261-1.2948c0.3769-1.3183,0.2749-4.7243,0.2749-6.0827v-19.1168
  c0-1.3551,0.1021-4.7611-0.2749-6.0783c-0.3001-1.0517-0.9513-1.1845-2.0261-1.2959l-1.8154-0.1492v-0.8416h8.6197
  c7.5877,0.0016,17.8297-1.0792,17.8297,9.5913c0,4.3172-2.9363,7.129-6.5233,8.8907
  C188.965,125.7137,189.0061,125.9177,189.0061,125.9177"></path>
  </g>
  </g>
  </svg>